<svg width="703" height="550" viewBox="0 0 703 550" fill="none" xmlns="http://www.w3.org/2000/svg">
<g clip-path="url(#clip0_43_536)">
<mask id="mask0_43_536" style="mask-type:luminance" maskUnits="userSpaceOnUse" x="-67" y="0" width="800" height="550">
<path d="M733 0H-67V550H733V0Z" fill="white"/>
</mask>
<g mask="url(#mask0_43_536)">
<path d="M606.114 244.937C606.114 244.937 604.096 266.704 599.052 278.052C594.008 289.411 582.9 298.867 581.891 303.601C580.882 308.335 578.865 349.966 578.865 349.966" stroke="#363636" stroke-linecap="round" stroke-linejoin="round"/>
<path d="M578.865 362.254V380.238" stroke="#363636" stroke-linecap="round" stroke-linejoin="round"/>
<path d="M96.3765 263.664C96.3765 263.664 98.394 296.779 121.608 312.86" stroke="#363636" stroke-linecap="round" stroke-linejoin="round"/>
<path d="M95.3677 254.208C95.3677 254.208 95.3677 240.957 98.394 231.501" stroke="#363636" stroke-linecap="round" stroke-linejoin="round"/>
<path d="M723.017 503.774C702.284 507.94 702.284 534.301 687.489 531.528C672.682 528.755 705.253 506.547 712.662 477.401C720.06 448.254 690.457 428.831 681.575 448.254C672.693 467.678 677.134 514.866 671.209 512.093C665.284 509.32 675.65 414.942 651.961 395.519C628.272 376.084 607.54 398.292 614.949 438.543C622.347 478.793 654.918 514.867 643.079 517.651C631.24 520.424 617.906 476.02 600.142 457.978C582.378 439.935 567.571 453.812 579.41 480.185C591.249 506.559 646.036 548.19 646.036 548.19C646.036 548.19 634.348 551.323 612.653 534.371C590.959 517.419 580.767 517.732 576.488 524.508C572.209 531.285 581.416 538.374 590.298 541.147" stroke="#363636" stroke-linecap="round" stroke-linejoin="round"/>
<path d="M92.3413 401.054C92.3413 401.054 120.599 405.788 118.581 417.135C116.564 428.495 81.2331 427.543 52.9756 442.685C24.7181 457.827 50.958 476.751 44.9053 494.724C38.8526 512.697 -30.7998 537.306 -30.7998 537.306" stroke="#363636" stroke-linecap="round" stroke-linejoin="round"/>
<path d="M308.975 185.948C317.509 183.581 326.762 180.669 334.136 175.923C348.897 166.443 346.16 162.046 337.881 148.726C314.32 110.842 396.507 100.527 419.697 98.3809" stroke="#363636" stroke-linecap="round" stroke-linejoin="round"/>
<path d="M669.273 30.4576C671.406 26.0253 674.189 21.1985 678.978 18.4602C684.126 15.5131 689.576 14.3528 694.516 12.7864" stroke="#363636" stroke-linecap="round" stroke-linejoin="round"/>
<path d="M532.727 83.2391C532.727 83.2391 615.761 89.7251 643.45 76.7531C655.787 70.9749 660.101 61.3212 662.942 51.3544" stroke="#363636" stroke-linecap="round" stroke-linejoin="round"/>
<path d="M506.557 100.864C506.557 100.864 498.568 109.845 498.568 118.083C498.568 126.321 501.757 137.541 503.357 148.772C504.957 160.004 494.568 180.216 494.568 180.216C494.568 180.216 508.54 170.238 511.334 165.248C514.129 160.259 516.923 151.023 516.923 151.023C516.923 151.023 524.112 145.779 524.912 139.792C525.712 133.805 527.312 130.057 527.312 122.573C527.312 115.089 521.724 97.1278 506.545 100.864H506.557Z" fill="white"/>
<path d="M418.723 186.957L458.646 193.699L467.435 184.718L461.046 181.724C461.046 181.724 424.312 184.718 418.723 186.969V186.957Z" fill="white"/>
<path d="M320.5 458.674V564.214H337.267V445.191C337.267 445.191 330.878 453.429 320.5 458.662V458.674Z" fill="white"/>
<path d="M310.111 325.426C310.111 325.426 318.1 353.122 314.9 365.096C311.711 377.071 306.911 387.548 302.922 392.038C298.933 396.529 279.766 413.747 275.766 413.747C275.766 413.747 298.922 411.496 313.3 400.276C327.678 389.045 339.656 371.084 341.244 355.362C342.844 339.64 334.855 321.678 334.855 321.678H316.488L310.099 325.426H310.111Z" fill="white"/>
<path d="M257.411 181.713L229.466 188.454C229.466 188.454 282.967 200.428 306.922 222.891L333.278 218.401C333.278 218.401 315.711 194.453 257.411 181.724V181.713Z" fill="white"/>
<path d="M508.157 179.462C508.157 179.462 511.346 183.21 512.946 190.693C514.546 198.177 514.546 201.171 514.546 201.171C514.546 201.171 522.535 198.92 539.302 204.164C556.069 209.409 573.635 210.906 563.258 213.145C552.88 215.384 536.102 210.151 549.68 216.139C563.258 222.126 572.035 216.893 575.236 225.119C578.424 233.357 579.224 261.796 573.635 263.293C568.047 264.789 552.08 257.306 552.08 264.047C552.08 270.788 564.858 273.028 563.258 282.762C561.658 292.497 560.069 298.484 553.68 305.968C547.291 313.452 538.502 305.214 531.324 303.717C524.135 302.22 534.513 309.704 536.113 320.936C537.713 332.167 526.536 338.897 526.536 338.897C526.536 338.897 514.558 320.182 516.158 328.42C517.758 336.658 522.547 344.884 521.747 350.129C520.947 355.373 507.369 351.625 504.98 343.387C502.58 335.149 489.906 320.518 488.213 327.666C486.521 334.824 496.203 347.124 497.003 356.116C497.803 365.096 489.014 373.334 489.014 373.334L478.636 372.58H472.247C472.247 372.58 470.647 382.315 461.869 389.799C453.08 397.283 448.291 398.037 457.88 402.527C467.458 407.018 491.425 408.514 512.981 408.514C534.536 408.514 556.103 393.547 560.092 389.056C564.081 384.566 560.892 371.838 560.892 362.114C560.892 352.391 570.47 306.722 570.47 306.722C570.47 306.722 592.025 270.788 593.626 258.814C595.226 246.84 588.906 222.764 586.436 219.144C583.967 215.524 578.447 207.17 568.07 200.428C557.692 193.687 516.158 180.97 516.158 180.97C516.158 180.97 519.347 178.719 516.158 174.983C512.969 171.235 509.769 170.493 509.769 170.493L508.169 179.473L508.157 179.462Z" fill="white"/>
<g style="mix-blend-mode:multiply">
<path d="M425.02 184.59C425.02 184.59 408.531 185.275 402.119 195.056C395.707 204.837 391.695 233.404 390.883 242.431C390.083 251.458 374.836 273.26 378.847 280.024" stroke="#363636" stroke-linecap="round" stroke-linejoin="round"/>
<path d="M366.812 338.34C366.812 338.34 366.812 353.145 371.751 358.703C376.691 364.261 379.648 366.106 391.498 366.106C403.348 366.106 402.363 360.548 402.363 360.548" stroke="#363636" stroke-linecap="round" stroke-linejoin="round"/>
<path d="M408.16 373.509C408.16 373.509 403.545 421.08 404.705 437.29C405.853 453.51 411.627 563.68 411.627 563.68H563.861C563.861 563.68 566.168 482.692 566.168 448.103C566.168 413.515 558.098 382.153 558.098 382.153C558.098 382.153 470.45 402.69 408.172 373.509H408.16Z" fill="#363636"/>
<path d="M510.418 182.27C510.418 182.27 529.237 185.403 541.401 190.287C553.564 195.172 581.346 203.317 583.955 215.524C586.564 227.73 581.346 252.154 576.14 279.026C570.934 305.887 563.2 326.528 562.249 341.705C560.162 374.773 563.721 382.872 557.912 388.917C550.549 396.575 518.836 409.269 479.749 406.008C440.673 402.748 408.879 388.105 404.542 371.002C400.206 353.911 409.749 319.021 404.542 270.985C399.336 222.961 409.401 187.015 425.043 184.567C440.673 182.131 482.358 180.495 491.043 180.495C499.727 180.495 510.441 182.247 510.441 182.247L510.418 182.27Z" fill="white" stroke="#363636" stroke-linecap="round" stroke-linejoin="round"/>
<path d="M462.182 222.369L469.209 241.189C469.209 241.189 450.135 324.95 444.105 341.891C440.174 352.96 437.519 368.044 436.151 377.175C435.386 382.28 436.51 387.467 439.316 391.899L444.94 400.787C446.853 403.815 451.144 404.639 454.181 402.551L463.353 396.239C468.328 392.816 471.377 387.455 471.655 381.677L478.242 244.009L494.301 227.068L478.242 203.538L462.182 222.358V222.369Z" fill="#C2B7BC"/>
<path d="M468.606 180.599C468.606 180.599 465.429 184.312 460.675 192.492C455.921 200.672 449.938 226.396 454.703 228.623C459.457 230.851 479.285 218.215 479.285 218.215C479.285 218.215 483.251 236.049 492.77 234.564C502.29 233.079 518.141 200.37 517.352 186.25C516.564 172.129 511.798 169.158 503.867 167.662C495.936 166.177 468.606 180.587 468.606 180.587V180.599Z" fill="white" stroke="#363636" stroke-linecap="round" stroke-linejoin="round"/>
<path d="M468.177 184.022C468.177 184.022 472.931 192.202 473.731 201.113C474.322 207.738 476.908 214.491 480.074 214.491C483.239 214.491 508.621 182.525 508.621 176.584C508.621 170.644 507.033 156.511 507.033 156.511C507.033 156.511 476.897 181.782 468.177 184.01V184.022Z" fill="white" stroke="#363636" stroke-linecap="round" stroke-linejoin="round"/>
<g style="mix-blend-mode:multiply">
<path d="M504.725 174.426C504.725 174.426 495.437 189.231 487.077 194.453C478.717 199.674 473.14 196.193 473.14 196.193L466.936 183.65C466.936 183.65 496.365 179.648 504.725 174.415V174.426Z" fill="#C2B7BC"/>
</g>
<path d="M460.779 86.0354C456.095 88.472 450.842 91.3495 449.033 96.3968C444.279 109.647 445.218 133.828 447.711 150.199C449.08 159.215 452.523 177.234 466.936 183.662C485.883 192.121 506.221 175.285 514.164 160.247C523.95 141.718 523.208 117.015 516.772 97.6731C514.442 90.665 509.978 86.0818 502.557 83.7844C489.338 79.6886 473.221 79.561 460.791 86.0354H460.779Z" fill="white" stroke="#363636" stroke-linecap="round" stroke-linejoin="round"/>
<path d="M464.177 127.667C464.177 127.667 463.492 145.686 463.492 152.125C463.492 158.565 466.24 159.853 470.357 159.853C474.473 159.853 480.653 152.125 480.653 152.125" fill="white"/>
<path d="M464.177 127.667C464.177 127.667 463.492 145.686 463.492 152.125C463.492 158.565 466.24 159.853 470.357 159.853C474.473 159.853 480.653 152.125 480.653 152.125" stroke="#363636" stroke-linecap="round" stroke-linejoin="round"/>
<path d="M480.039 121.54C480.039 121.54 487.367 120.577 494.046 124.766L480.039 121.54Z" fill="white"/>
<path d="M480.039 121.54C480.039 121.54 487.367 120.577 494.046 124.766" stroke="#363636" stroke-linecap="round" stroke-linejoin="round"/>
<path d="M462.762 116.597C462.762 116.597 455.805 115.449 451.909 119.951L462.762 116.597Z" fill="white"/>
<path d="M462.762 116.597C462.762 116.597 455.805 115.449 451.909 119.951" stroke="#363636" stroke-linecap="round" stroke-linejoin="round"/>
<path d="M479.842 136.752C479.842 136.752 483.715 140.024 493.71 137.958L479.842 136.752Z" fill="white"/>
<path d="M479.842 136.752C479.842 136.752 483.715 140.024 493.71 137.958" stroke="#363636" stroke-linecap="round" stroke-linejoin="round"/>
<path d="M450.448 134.106C450.448 134.106 455.26 139.258 460.744 136.032L450.448 134.106Z" fill="white"/>
<path d="M450.448 134.106C450.448 134.106 455.26 139.258 460.744 136.032" stroke="#363636" stroke-linecap="round" stroke-linejoin="round"/>
<path d="M516.761 97.6731C516.761 97.6731 518.431 71.671 500.574 65.8812" stroke="#363636" stroke-miterlimit="10"/>
<path d="M521.167 98.0676C521.167 98.0676 506.743 69.1068 481.349 66.5309" stroke="#363636" stroke-miterlimit="10" stroke-linecap="round"/>
<path d="M528.727 108.359C526.663 99.3439 521.179 98.056 521.179 98.056C521.179 98.056 516.703 88.6345 509.131 81.3479C509.259 81.3479 509.375 81.3246 509.502 81.3246C509.502 81.3246 508.215 79.9671 505.432 78.1919C503.705 76.8923 501.849 75.7669 499.89 74.8966C498.591 74.3165 497.177 73.8756 495.669 73.5507C489.674 71.4506 481.581 69.745 471.053 69.745C443.584 69.745 428.487 82.6126 427.107 94.2039C425.738 105.784 442.899 94.2038 440.835 96.1299C438.771 98.056 425.727 105.784 434.655 111.573C440.209 115.17 446.517 113.79 451.955 110.784C454.877 109.172 464.107 104.472 465.765 101.897C464.536 103.799 462.345 106.839 459.365 109.636C454.553 114.138 450.436 115.426 450.436 115.426C450.436 115.426 458.68 116.064 466.913 110.274C475.157 104.484 486.822 98.6942 497.814 98.6942C508.807 98.6942 506.743 107.71 506.743 107.71C506.743 107.71 499.194 116.075 503.995 120.577C508.795 125.079 512.239 125.079 512.923 127.017C513.607 128.943 512.239 134.095 514.291 134.095C516.343 134.095 515.659 124.441 519.103 124.441C522.547 124.441 526.652 130.231 526.652 130.231C526.652 130.231 530.768 117.363 528.716 108.348L528.727 108.359Z" fill="#363636"/>
<path d="M512.934 136.682C512.934 136.682 515.683 122.526 523.231 122.526C530.779 122.526 528.043 131.542 525.295 140.546C522.547 149.561 515.683 150.838 515.683 150.838" fill="white"/>
<path d="M512.934 136.682C512.934 136.682 515.683 122.526 523.231 122.526C530.779 122.526 528.043 131.542 525.295 140.546C522.547 149.561 515.683 150.838 515.683 150.838" stroke="#363636" stroke-linecap="round" stroke-linejoin="round"/>
<path d="M557.483 220.687C557.483 220.687 528.692 234.46 524.066 251.319C519.439 268.178 503.194 302.278 496.736 307.604C496.736 307.604 487.552 314.844 497.095 319.729C506.65 324.614 515.335 343.341 518.802 352.287C522.28 361.244 535.986 357.253 536.426 350.755C536.867 344.258 543.604 334.871 549.946 331.17C556.289 327.468 582.459 288.251 590.947 265.915C599.435 243.579 587.329 216.754 579.537 216.289" fill="white"/>
<path d="M557.483 220.687C557.483 220.687 528.692 234.46 524.066 251.319C519.439 268.178 503.194 302.278 496.736 307.604C496.736 307.604 487.552 314.844 497.095 319.729C506.65 324.614 515.335 343.341 518.802 352.287C522.28 361.244 535.986 357.253 536.426 350.755C536.867 344.258 543.604 334.871 549.946 331.17C556.289 327.468 582.459 288.251 590.947 265.915C599.435 243.579 587.329 216.754 579.537 216.289" stroke="#363636" stroke-linecap="round" stroke-linejoin="round"/>
<path d="M364.759 232.974L377.282 298.101C377.734 300.666 380.308 302.418 383.057 302.023C385.967 301.605 387.892 298.972 387.254 296.28L374.349 231.222C373.78 228.844 371.554 227.985 368.992 228.38C366.325 228.797 364.319 230.468 364.759 232.963V232.974Z" fill="white" stroke="#363636" stroke-linecap="round" stroke-linejoin="round"/>
<path d="M382.013 264.244C382.013 264.244 367.82 258.199 364.806 259C361.791 259.812 360.933 268.27 360.933 268.27C360.933 268.27 361.362 271.902 362.649 276.74C363.936 281.579 368.238 288.842 372.969 291.256C377.7 293.681 384.587 293.681 387.161 291.256C389.735 288.831 388.019 279.56 388.019 279.56" fill="white"/>
<path d="M382.013 264.244C382.013 264.244 367.82 258.199 364.806 259C361.791 259.812 360.933 268.27 360.933 268.27C360.933 268.27 361.362 271.902 362.649 276.74C363.936 281.579 368.238 288.842 372.969 291.256C377.7 293.681 384.587 293.681 387.161 291.256C389.735 288.831 388.019 279.56 388.019 279.56" stroke="#363636" stroke-linecap="round" stroke-linejoin="round"/>
<path d="M388.901 255.368C388.901 255.368 381.746 255.217 381.746 260.485C381.746 265.753 381.12 275.116 382.999 276.88C384.877 278.632 391.741 278.632 392.994 272.784C393.747 269.257 394.142 264.511 394.35 261.297C394.524 258.489 392.507 255.832 389.538 255.414C389.318 255.38 389.109 255.368 388.901 255.368Z" fill="white" stroke="#363636" stroke-linecap="round" stroke-linejoin="round"/>
<path d="M345.627 205.847L352.26 241.027C353.929 250.402 363.321 256.795 373.351 255.368C383.984 253.86 391.022 244.229 388.692 234.39L380.668 199.465C378.604 190.786 370.464 187.63 361.107 189.092C351.378 190.612 344.015 196.727 345.639 205.847H345.627Z" fill="white" stroke="#363636" stroke-linecap="round" stroke-linejoin="round"/>
<g style="mix-blend-mode:multiply">
<path d="M363.959 188.802C363.02 188.849 362.069 188.941 361.095 189.092C351.367 190.612 344.004 196.727 345.627 205.847L352.26 241.027C353.929 250.402 363.321 256.795 373.351 255.368C374.882 255.147 376.331 254.753 377.688 254.219L363.959 188.814V188.802Z" fill="#C2B7BC"/>
</g>
<path d="M379.798 197.203C381.224 203.515 374.615 210.163 365.049 212.066C355.472 213.969 346.566 210.384 345.14 204.083C343.714 197.771 350.323 191.123 359.889 189.22C369.467 187.317 378.372 190.902 379.798 197.203Z" fill="white" stroke="#363636" stroke-linecap="round" stroke-linejoin="round"/>
<path d="M380.853 269.697C382.941 275.302 380.332 281.242 375.033 282.971C369.734 284.7 363.762 281.567 361.675 275.963C359.588 270.359 362.197 264.418 367.496 262.689C372.795 260.961 378.766 264.093 380.853 269.697Z" fill="#363636"/>
<path d="M358.602 272.355L313.59 305.4C313.59 305.4 309.497 309.751 314.355 309.727C319.225 309.704 367.403 280.894 367.403 280.894C367.403 280.894 374.383 271.728 358.591 272.343L358.602 272.355Z" fill="#363636"/>
<path d="M487.518 353.54C488.828 347.089 476.989 329.255 469.36 326.354C469.36 326.354 455.932 319.021 444.778 316.724C433.623 314.427 412.879 312.361 396.043 304.019L379.207 295.665C379.207 295.665 376.841 279.212 375.45 274.234C374.047 269.257 370.8 265.799 363.008 265.335C355.205 264.871 345.894 261.042 343.134 263.328C340.363 265.613 341.604 273.028 341.604 273.028L330.461 279.27C325.938 279.003 320.292 278.643 318.436 278.643C315.445 278.643 311.955 283.783 316.442 285.187C320.929 286.591 335.389 287.52 335.389 287.52C342.508 295.375 349.129 304.251 356.689 311.665C360.794 315.691 367.867 316.283 371.508 319.683C371.508 319.683 415.616 353.227 429.681 360.27C453.984 372.429 480.908 374.367 486.335 371.42C491.762 368.484 486.242 359.991 487.553 353.552L487.518 353.54Z" fill="white" stroke="#363636" stroke-linecap="round" stroke-linejoin="round"/>
<g style="mix-blend-mode:multiply">
<path d="M465.046 326.482C465.046 326.482 471.957 340.278 473.406 349.827C474.856 359.365 465.406 365.503 457.405 364.818C449.404 364.133 420.323 353.911 420.323 353.911C420.323 353.911 447.433 370.492 466.855 370.956C486.289 371.408 490.846 374.367 493.756 368.229C496.666 362.091 495.205 341.647 486.486 334.836C477.755 328.025 468.304 320.193 465.035 326.494L465.046 326.482Z" fill="#C2B7BC"/>
</g>
<path d="M528.948 352.763C528.669 351.44 528.461 350.105 528.287 348.771C527.602 343.457 524.715 329.87 512.842 318.963C497.733 305.075 486.057 306.107 482.393 307.616C478.717 309.124 471.087 316.457 471.087 316.457C471.087 316.457 458.414 319.161 465.046 326.482C471.679 333.803 482.532 344.838 483.599 355.292C484.665 365.746 483.854 377.813 496.585 374.239C509.317 370.677 511.276 368.194 522.106 366.245C530.524 364.737 529.724 356.406 528.936 352.763H528.948Z" fill="white" stroke="#363636" stroke-linecap="round" stroke-linejoin="round"/>
<path d="M337.708 275.534C337.708 275.534 351.9 275.534 353.628 277.147C355.344 278.759 355.773 279.966 355.773 279.966" stroke="#363636" stroke-linecap="round" stroke-linejoin="round"/>
<path d="M341.58 273.016C341.58 273.016 347.169 271.902 354.057 271.902C360.944 271.902 364.377 273.921 364.377 273.921" stroke="#363636" stroke-linecap="round" stroke-linejoin="round"/>
<path d="M477.523 319.88C477.523 319.88 500.783 328.907 501.594 341.682" stroke="#363636" stroke-linecap="round" stroke-linejoin="round"/>
<path d="M504.006 349.2C504.006 349.2 504.806 356.719 504.806 360.478" stroke="#363636" stroke-linecap="round" stroke-linejoin="round"/>
<path d="M470.763 166.501C470.763 166.501 480.491 169.1 486.741 162.591L470.763 166.501Z" fill="white"/>
<path d="M470.763 166.501C470.763 166.501 480.491 169.1 486.741 162.591" stroke="#363636" stroke-linecap="round" stroke-linejoin="round"/>
<path d="M456.605 414.594C456.605 414.594 460.06 455.68 463.527 459.996C466.983 464.324 475.065 469.731 475.065 469.731" stroke="white" stroke-linecap="round" stroke-linejoin="round"/>
<path d="M496.968 453.51C496.968 453.51 478.52 476.217 478.52 481.613C478.52 487.008 479.668 562.601 479.668 562.601" stroke="white" stroke-miterlimit="10" stroke-linecap="round"/>
<path d="M555.79 398.374C555.79 398.374 540.798 417.832 506.198 417.832L503.96 409.118" stroke="white" stroke-linecap="round" stroke-linejoin="round"/>
<path d="M337.499 438.728H128.472V564.562H337.499V438.728Z" fill="white" stroke="#363636" stroke-miterlimit="10"/>
<path d="M156.347 564.562V478.782C156.347 475.173 153.228 472.249 149.378 472.249C145.529 472.249 142.41 475.173 142.41 478.782V564.562H156.347Z" fill="#51D289" stroke="#363636" stroke-miterlimit="10"/>
<path d="M312.419 564.562V487.495C312.419 483.887 309.299 480.963 305.45 480.963C301.6 480.963 298.481 483.887 298.481 487.495V564.562H312.419Z" fill="#51D289" stroke="#363636" stroke-miterlimit="10"/>
<path d="M187.005 564.562V489.236C187.005 485.627 183.886 482.703 180.036 482.703C176.186 482.703 173.067 485.627 173.067 489.236V564.562H187.005Z" fill="#51D289" stroke="#363636" stroke-miterlimit="10"/>
<path d="M227.924 564.562V495.791C227.924 490.965 223.75 487.066 218.613 487.066C213.465 487.066 209.302 490.976 209.302 495.791V564.562H227.924Z" fill="#51D289" stroke="#363636" stroke-miterlimit="10"/>
<path d="M277.157 564.562V494.921C277.157 490.094 272.983 486.196 267.846 486.196C262.698 486.196 258.536 490.106 258.536 494.921V564.562H277.157Z" fill="#51D289" stroke="#363636" stroke-miterlimit="10"/>
<path d="M337.499 438.728H128.472V564.562H337.499V438.728Z" stroke="#363636" stroke-miterlimit="10"/>
<path d="M232.991 475.742C290.709 475.742 337.499 459.17 337.499 438.728C337.499 418.287 290.709 401.715 232.991 401.715C175.273 401.715 128.484 418.287 128.484 438.728C128.484 459.17 175.273 475.742 232.991 475.742Z" fill="white" stroke="#363636" stroke-linecap="round" stroke-linejoin="round"/>
<path d="M232.991 475.742C290.709 475.742 337.499 459.17 337.499 438.728C337.499 418.287 290.709 401.715 232.991 401.715C175.273 401.715 128.484 418.287 128.484 438.728C128.484 459.17 175.273 475.742 232.991 475.742Z" stroke="#363636" stroke-linecap="round" stroke-linejoin="round"/>
<g style="mix-blend-mode:multiply">
<path d="M226.486 464.22C268.861 464.22 303.212 453.197 303.212 439.599C303.212 426.001 268.861 414.977 226.486 414.977C184.112 414.977 149.761 426.001 149.761 439.599C149.761 453.197 184.112 464.22 226.486 464.22Z" fill="#C2B7BC"/>
</g>
<path d="M341.314 345.801C341.314 335.706 339.366 327.085 335.702 319.567C335.157 319.184 333.29 317.896 330.066 315.656C326.182 312.965 322.309 313.301 322.309 313.301C322.309 313.301 319.723 308.277 317.138 305.666C314.552 303.067 309.381 304.529 309.381 304.529C309.381 304.529 307.444 301.965 304.847 299.366C302.261 296.767 293.205 296.744 293.205 296.744C293.205 296.744 289.97 288.633 286.735 284.166C285.297 282.182 284.52 281.219 284.08 280.743C272.125 275.859 265.412 275.128 249.99 270.997C215.564 261.703 207.134 257.503 207.134 245.981C207.134 237.418 215.216 231.721 231.727 232.858C232.11 232.882 232.493 232.928 232.887 232.963L274.444 266.82L300.591 260.334L334.67 217.566C312.894 199.604 286.897 187.932 255.277 182.455V161.709L216.63 159.041L190.483 165.527L196.745 177.826L197.313 182.061C160.776 189.359 138.293 213.087 138.293 247.814C138.293 294.899 178.691 310.528 231.032 325.333C264.403 334.883 272.832 337.11 272.832 347.971C272.832 357.845 263 363.101 244.378 361.813C215.923 359.852 189.219 348.458 164.638 328.652L138.49 335.138L119.857 376.015L149.077 388.987L151.79 387.095C171.258 398.896 193.278 407.064 216.619 411.601V433.333L226.092 433.983L229.118 442.476L255.266 435.99L255.764 415.232C308.163 414.757 341.337 389.753 341.337 345.766L341.314 345.801Z" fill="white" stroke="#363636" stroke-linecap="round" stroke-linejoin="round"/>
<g style="mix-blend-mode:multiply">
<path d="M334.635 217.577L298.898 226.454L274.421 266.82L300.568 260.334L334.635 217.577Z" fill="#C2B7BC"/>
</g>
<g style="mix-blend-mode:multiply">
<path d="M229.107 442.511L255.242 436.025V415.267L227.24 418.4L229.107 442.511Z" fill="#C2B7BC"/>
</g>
<g style="mix-blend-mode:multiply">
<path d="M221.373 289.376C224.156 288.506 252.031 287.636 252.031 287.636L269.771 285.942L274.328 278.922L280.416 279.328C270.595 275.685 263.753 274.698 249.978 270.997C215.552 261.703 207.122 257.503 207.122 245.981C207.122 239.565 211.668 234.75 220.898 233.23C191.863 222.926 158.573 242.303 168.418 264.117C178.633 286.754 218.578 290.246 221.373 289.376Z" fill="#C2B7BC"/>
</g>
<g style="mix-blend-mode:multiply">
<path d="M244.355 361.836C215.9 359.875 189.196 348.481 164.614 328.675L138.467 335.161C138.467 335.161 147.048 356.429 179.561 369.494C212.074 382.559 247.381 373.845 252.019 370.364C255.138 368.032 257.828 363.739 259.266 361.163C255.185 361.987 250.199 362.231 244.343 361.836H244.355Z" fill="#C2B7BC"/>
</g>
<path d="M341.314 345.801C341.314 335.706 339.366 327.085 335.702 319.567C335.157 319.184 333.29 317.896 330.066 315.657C326.182 312.965 322.309 313.301 322.309 313.301C322.309 313.301 319.723 308.277 317.138 305.666C314.552 303.067 309.381 304.529 309.381 304.529C309.381 304.529 307.444 301.965 304.847 299.366C302.261 296.767 293.205 296.744 293.205 296.744C293.205 296.744 289.97 288.633 286.735 284.166C285.297 282.182 284.52 281.219 284.08 280.743C272.125 275.859 265.412 275.128 249.99 270.997C215.564 261.703 207.134 257.503 207.134 245.981C207.134 237.418 215.216 231.721 231.727 232.858C232.11 232.882 232.493 232.928 232.887 232.963L274.444 266.82L300.591 260.334L334.67 217.566C312.894 199.604 286.897 187.932 255.277 182.455V161.709L216.63 159.041L190.483 165.527L196.745 177.826L197.313 182.061C160.776 189.359 138.293 213.087 138.293 247.814C138.293 294.899 178.691 310.528 231.032 325.333C264.403 334.883 272.832 337.11 272.832 347.971C272.832 357.845 263 363.101 244.378 361.813C215.923 359.852 189.219 348.458 164.638 328.652L138.49 335.138L119.857 376.015L149.077 388.987L151.79 387.095C171.258 398.896 193.278 407.064 216.619 411.601V433.333L226.092 433.983L229.118 442.476L255.266 435.99L255.764 415.232C308.163 414.757 341.337 389.753 341.337 345.766L341.314 345.801Z" stroke="#363636" stroke-linecap="round" stroke-linejoin="round"/>
<path d="M303.931 322.154C300.046 319.462 296.174 319.799 296.174 319.799C296.174 319.799 293.588 314.775 291.002 312.164C288.416 309.565 283.245 311.027 283.245 311.027C283.245 311.027 281.309 308.463 278.711 305.864C276.125 303.265 267.07 303.241 267.07 303.241C267.07 303.241 263.835 295.131 260.599 290.664C259.162 288.68 258.385 287.717 257.944 287.241C245.99 282.356 239.276 281.625 223.854 277.495C189.428 268.201 180.998 264 180.998 252.479C180.998 243.916 189.08 238.219 205.592 239.356C227.379 240.853 251.961 250.123 274.444 266.832L308.522 224.063C286.747 206.102 260.75 194.43 229.13 188.953V168.207L190.483 165.538V186.284C142.711 188.257 112.146 213.806 112.146 254.312C112.146 301.397 152.544 317.026 204.884 331.831C238.256 341.38 246.685 343.608 246.685 354.468C246.685 364.342 236.852 369.598 218.231 368.31C189.776 366.35 163.072 354.956 138.49 335.149L100.551 375.017C125.144 397.132 156.405 411.473 190.483 418.098V433.658L229.13 442.488V421.742C281.819 421.428 315.201 396.401 315.201 352.275C315.201 342.181 313.253 333.56 309.589 326.041C309.044 325.658 307.177 324.37 303.954 322.131L303.931 322.154Z" fill="#51D289" stroke="#363636" stroke-linecap="round" stroke-linejoin="round"/>
<path d="M303.931 322.154C300.046 319.462 296.174 319.799 296.174 319.799C296.174 319.799 293.588 314.775 291.002 312.164C288.416 309.565 283.245 311.027 283.245 311.027C283.245 311.027 281.309 308.463 278.711 305.864C276.125 303.265 267.07 303.241 267.07 303.241C267.07 303.241 263.835 295.131 260.599 290.664C259.162 288.68 258.385 287.717 257.944 287.241C245.99 282.356 239.276 281.625 223.854 277.495C189.428 268.201 180.998 264 180.998 252.479C180.998 243.916 189.08 238.219 205.592 239.356C227.379 240.853 251.961 250.123 274.444 266.832L308.522 224.063C286.747 206.102 260.75 194.43 229.13 188.953V168.207L190.483 165.538V186.284C142.711 188.257 112.146 213.806 112.146 254.312C112.146 301.397 152.544 317.026 204.884 331.831C238.256 341.38 246.685 343.608 246.685 354.468C246.685 364.342 236.852 369.598 218.231 368.31C189.776 366.35 163.072 354.956 138.49 335.149L100.551 375.017C125.144 397.132 156.405 411.473 190.483 418.098V433.658L229.13 442.488V421.742C281.819 421.428 315.201 396.401 315.201 352.275C315.201 342.181 313.253 333.56 309.589 326.041C309.044 325.658 307.177 324.37 303.954 322.131L303.931 322.154Z" stroke="#363636" stroke-linecap="round" stroke-linejoin="round"/>
<path d="M308.499 224.063L325.127 219.643" stroke="#363636" stroke-linecap="round" stroke-linejoin="round"/>
<path d="M229.107 168.207L246.697 164.865" stroke="#363636" stroke-linecap="round" stroke-linejoin="round"/>
<path d="M229.107 188.953L246.697 185.762" stroke="#363636" stroke-linecap="round" stroke-linejoin="round"/>
<path d="M257.921 287.241L269.771 285.942L274.386 281.625L284.068 280.755" stroke="#363636" stroke-linecap="round" stroke-linejoin="round"/>
<path d="M309.554 326.064L313.59 322.699L319.747 321.98H323.585H332.049L335.702 319.578" stroke="#363636" stroke-linecap="round" stroke-linejoin="round"/>
<path d="M330.438 279.258C330.438 279.258 343.285 279.653 347.366 281.184" stroke="#363636" stroke-linecap="round" stroke-linejoin="round"/>
<path d="M414.201 400.358C414.201 400.358 426.051 424.422 446.784 438.311" stroke="white" stroke-linecap="round" stroke-linejoin="round"/>
<path d="M529.724 258.744C529.724 258.744 536.635 244.856 557.367 251.342" stroke="#363636" stroke-linecap="round" stroke-linejoin="round"/>
<path d="M531.707 307.801C531.707 307.801 546.514 312.431 541.586 332.794" stroke="#363636" stroke-linecap="round" stroke-linejoin="round"/>
<path d="M363.507 320.727C363.507 320.727 366.812 342.041 375.694 350.372C384.575 358.703 399.394 345.743 399.394 345.743" stroke="#363636" stroke-linecap="round" stroke-linejoin="round"/>
<path d="M313.335 310.853C313.335 311.746 312.558 312.477 311.607 312.477C310.656 312.477 309.879 311.758 309.879 310.853C309.879 309.948 310.656 309.229 311.607 309.229C312.558 309.229 313.335 309.96 313.335 310.853Z" fill="white" stroke="#363636" stroke-linecap="round" stroke-linejoin="round"/>
<path d="M305.948 282.994C307.305 282.994 308.407 284.027 308.407 285.303C308.407 286.58 307.305 287.612 305.948 287.612C304.592 287.612 303.49 286.58 303.49 285.303C303.49 284.027 304.592 282.994 305.948 282.994Z" fill="white" stroke="#363636" stroke-linecap="round" stroke-linejoin="round"/>
<path d="M297.751 310.041C299.107 310.041 300.209 311.073 300.209 312.35C300.209 313.626 299.107 314.659 297.751 314.659C296.394 314.659 295.292 313.626 295.292 312.35C295.292 311.073 296.394 310.041 297.751 310.041Z" fill="white" stroke="#363636" stroke-linecap="round" stroke-linejoin="round"/>
<path d="M309.195 294.864C309.195 295.758 308.418 296.489 307.467 296.489C306.517 296.489 305.74 295.769 305.74 294.864C305.74 293.959 306.517 293.24 307.467 293.24C308.418 293.24 309.195 293.959 309.195 294.864Z" fill="white" stroke="#363636" stroke-linecap="round" stroke-linejoin="round"/>
<path d="M282.294 294.864C282.294 295.758 281.517 296.489 280.566 296.489C279.616 296.489 278.839 295.769 278.839 294.864C278.839 293.959 279.616 293.24 280.566 293.24C281.517 293.24 282.294 293.959 282.294 294.864Z" fill="white" stroke="#363636" stroke-linecap="round" stroke-linejoin="round"/>
<path d="M467.562 413.91L472.212 452.223C472.212 452.223 469.719 459.938 463.527 459.996" stroke="white" stroke-linecap="round" stroke-linejoin="round"/>
<path d="M526.083 416.52C526.083 416.52 529.794 430.455 549.309 438.287" stroke="white" stroke-linecap="round" stroke-linejoin="round"/>
<path d="M494.498 409.129L497.408 419.352" stroke="white" stroke-linecap="round" stroke-linejoin="round"/>
</g>
</g>
</g>
<defs>
<clipPath id="clip0_43_536">
<rect width="800" height="550" fill="white" transform="translate(-67)"/>
</clipPath>
</defs>
</svg>
